<svg width="300" height="209" viewBox="0 0 300 209" fill="none" xmlns="http://www.w3.org/2000/svg">
<path d="M109 0H1C0.447715 0 0 0.447715 0 1V64C0 64.5523 0.447715 65 1 65H109C109.552 65 110 64.5523 110 64V1C110 0.447715 109.552 0 109 0Z" fill="white"/>
<path d="M110.5 32.5C123.089 30.923 134.255 35.756 144 47C157 62 153.573 63.798 166 78C175.333 88.667 183.5 93.833 190.5 93.5M156.5 176.5C182.312 177.658 202.478 174.158 217 166C231.522 157.842 241.022 144.675 245.5 126.5" stroke="white" stroke-width="10" stroke-linecap="square"/>
<path d="M155 144H47C46.4477 144 46 144.448 46 145V208C46 208.552 46.4477 209 47 209H155C155.552 209 156 208.552 156 208V145C156 144.448 155.552 144 155 144Z" fill="white"/>
<path d="M299 61H191C190.448 61 190 61.4477 190 62V125C190 125.552 190.448 126 191 126H299C299.552 126 300 125.552 300 125V62C300 61.4477 299.552 61 299 61Z" fill="#FF0072"/>
</svg>
